<?xml version="1.0" encoding="utf-8"?>
<!-- Generator: Adobe Illustrator 27.5.0, SVG Export Plug-In . SVG Version: 6.00 Build 0)  -->
<svg version="1.1" xmlns="http://www.w3.org/2000/svg" xmlns:xlink="http://www.w3.org/1999/xlink" x="0px" y="0px"
	 viewBox="0 0 500 500" style="enable-background:new 0 0 500 500;" xml:space="preserve">
<g id="Background_Complete">
	<g>
		<rect y="382.398" style="fill:#EBEBEB;" width="500" height="0.25"/>
		<rect x="410.767" y="391.922" style="fill:#EBEBEB;" width="33.122" height="0.25"/>
		<rect x="131.471" y="395.306" style="fill:#EBEBEB;" width="49.862" height="0.25"/>
		<rect x="380.241" y="401.208" style="fill:#EBEBEB;" width="29.526" height="0.25"/>
		<rect x="52.459" y="399.528" style="fill:#EBEBEB;" width="21.597" height="0.25"/>
		<rect x="82.959" y="399.528" style="fill:#EBEBEB;" width="38.374" height="0.25"/>
		<rect x="237.544" y="389.208" style="fill:#EBEBEB;" width="93.676" height="0.25"/>
		<path style="fill:#EBEBEB;" d="M237.014,337.8H43.915c-3.147,0-5.708-2.561-5.708-5.708V60.66c0-3.147,2.561-5.708,5.708-5.708
			h193.099c3.146,0,5.707,2.561,5.707,5.708v271.432C242.721,335.239,240.16,337.8,237.014,337.8z M43.915,55.203
			c-3.01,0-5.458,2.448-5.458,5.458v271.432c0,3.01,2.448,5.458,5.458,5.458h193.099c3.009,0,5.457-2.448,5.457-5.458V60.66
			c0-3.009-2.448-5.458-5.457-5.458H43.915z"/>
		<path style="fill:#EBEBEB;" d="M453.31,337.8H260.212c-3.147,0-5.707-2.561-5.707-5.708V60.66c0-3.147,2.561-5.708,5.707-5.708
			H453.31c3.148,0,5.708,2.561,5.708,5.708v271.432C459.019,335.239,456.458,337.8,453.31,337.8z M260.212,55.203
			c-3.009,0-5.457,2.448-5.457,5.458v271.432c0,3.01,2.448,5.458,5.457,5.458H453.31c3.01,0,5.458-2.448,5.458-5.458V60.66
			c0-3.009-2.448-5.458-5.458-5.458H260.212z"/>
	</g>
	<g>
		
			<rect x="108.708" y="82.198" transform="matrix(-1 -1.224647e-16 1.224647e-16 -1 488.6295 296.8549)" style="fill:#E6E6E6;" width="271.214" height="132.458"/>
		
			<rect x="103.629" y="82.198" transform="matrix(-1 -1.224647e-16 1.224647e-16 -1 481.177 296.8549)" style="fill:#F0F0F0;" width="273.92" height="132.458"/>
		
			<rect x="108.708" y="214.656" transform="matrix(-1 -1.224647e-16 1.224647e-16 -1 488.6295 438.7514)" style="fill:#E6E6E6;" width="271.214" height="9.438"/>
		
			<rect x="95.167" y="214.656" transform="matrix(-1 -1.224647e-16 1.224647e-16 -1 464.2538 438.7514)" style="fill:#F0F0F0;" width="273.92" height="9.438"/>
		
			<rect x="181.47" y="18.578" transform="matrix(-1.836970e-16 1 -1 -1.836970e-16 389.016 -92.1611)" style="fill:#FAFAFA;" width="118.237" height="259.698"/>
		<polygon style="fill:#FFFFFF;" points="182.173,207.546 170.786,89.309 151.085,89.309 162.472,207.546 		"/>
		<polygon style="fill:#FFFFFF;" points="333.819,207.546 322.431,89.309 302.73,89.309 314.117,207.546 		"/>
		<path style="fill:#F0F0F0;" d="M367.145,167.467c0.301,0,0.544-0.244,0.544-0.544V93.936c0-0.3-0.243-0.544-0.544-0.544
			s-0.544,0.244-0.544,0.544v72.987C366.601,167.223,366.844,167.467,367.145,167.467z"/>
		<polygon style="fill:#FFFFFF;" points="158.24,207.546 146.852,89.309 139.172,89.309 150.559,207.546 		"/>
		
			<rect x="52.072" y="147.976" transform="matrix(-1.836970e-16 1 -1 -1.836970e-16 259.6183 37.2365)" style="fill:#E6E6E6;" width="118.237" height="0.903"/>
		<polygon style="opacity:0.5;fill:#E0E0E0;" points="101.947,102.201 373.161,102.201 373.815,92.073 102.601,92.073 		"/>
		<polygon style="opacity:0.5;fill:#E0E0E0;" points="101.947,118.851 373.161,118.851 373.815,108.723 102.601,108.723 		"/>
		<polygon style="opacity:0.5;fill:#E0E0E0;" points="101.947,135.501 373.161,135.501 373.815,125.372 102.601,125.372 		"/>
		<polygon style="opacity:0.5;fill:#E0E0E0;" points="101.947,152.15 373.161,152.15 373.815,142.022 102.601,142.022 		"/>
		<polygon style="opacity:0.5;fill:#E0E0E0;" points="101.947,168.8 373.161,168.8 373.815,158.672 102.601,158.672 		"/>
		<polygon style="opacity:0.5;fill:#E0E0E0;" points="101.947,185.45 373.161,185.45 373.815,175.321 102.601,175.321 		"/>
	</g>
	<g>
		<g>
			
				<rect x="264.636" y="268.354" transform="matrix(-1 -1.224647e-16 1.224647e-16 -1 546.3352 650.7523)" style="fill:#E6E6E6;" width="17.063" height="114.045"/>
			<polygon style="fill:#F0F0F0;" points="269.123,382.398 264.636,382.398 264.636,366.867 273.827,366.867 			"/>
			
				<rect x="421.962" y="268.354" transform="matrix(-1 -1.224647e-16 1.224647e-16 -1 860.9868 650.7523)" style="fill:#E6E6E6;" width="17.063" height="114.045"/>
			
				<rect x="264.636" y="268.354" transform="matrix(-1 -1.224647e-16 1.224647e-16 -1 690.5135 641.222)" style="fill:#F0F0F0;" width="161.241" height="104.514"/>
			
				<rect x="268.117" y="272.986" transform="matrix(-1 -1.224647e-16 1.224647e-16 -1 690.5135 574.634)" style="fill:#E6E6E6;" width="154.28" height="28.662"/>
			<path style="fill:#F0F0F0;" d="M294.998,281.893h97.503c4.378,0,8.563-3.536,11.573-9.779l0,0h-120.65l0,0
				C286.436,278.357,290.621,281.893,294.998,281.893z"/>
			<polygon style="fill:#F0F0F0;" points="421.391,382.398 425.877,382.398 425.877,366.867 416.686,366.867 			"/>
			
				<rect x="268.117" y="306.28" transform="matrix(-1 -1.224647e-16 1.224647e-16 -1 690.5135 641.2219)" style="fill:#E6E6E6;" width="154.28" height="28.662"/>
			<path style="fill:#F0F0F0;" d="M294.998,315.187h97.503c4.378,0,8.563-3.536,11.573-9.778l0,0h-120.65l0,0
				C286.436,311.651,290.621,315.187,294.998,315.187z"/>
			
				<rect x="268.117" y="339.574" transform="matrix(-1 -1.224647e-16 1.224647e-16 -1 690.5135 707.8099)" style="fill:#E6E6E6;" width="154.28" height="28.662"/>
			<path style="fill:#F0F0F0;" d="M294.998,348.481h97.503c4.378,0,8.563-3.536,11.573-9.778l0,0h-120.65l0,0
				C286.436,344.945,290.621,348.481,294.998,348.481z"/>
		</g>
	</g>
	<g>
		<path style="fill:#F5F5F5;" d="M152.311,249.846H132.53c-2.507,0-4.539-2.032-4.539-4.539v-7.603c0-2.507,2.032-4.539,4.539-4.539
			h19.781c2.507,0,4.539,2.032,4.539,4.539v7.603C156.85,247.814,154.818,249.846,152.311,249.846z"/>
		<path style="fill:#F5F5F5;" d="M188.421,249.846H168.64c-2.507,0-4.539-2.032-4.539-4.539v-7.603c0-2.507,2.032-4.539,4.539-4.539
			h19.781c2.507,0,4.539,2.032,4.539,4.539v7.603C192.96,247.814,190.928,249.846,188.421,249.846z"/>
		<path style="fill:#F0F0F0;" d="M82.485,229.833c0,0,0.688,20.013,27.063,20.013c26.375,0,27.063-20.013,27.063-20.013H82.485z"/>
	</g>
	<g>
		<g>
			
				<rect x="195.932" y="256.145" transform="matrix(-1 -1.224647e-16 1.224647e-16 -1 420.9024 632.0218)" style="fill:#F0F0F0;" width="29.037" height="119.732"/>
			
				<rect x="76.195" y="375.877" transform="matrix(-1 -1.224647e-16 1.224647e-16 -1 295.589 758.2754)" style="fill:#F0F0F0;" width="143.2" height="6.521"/>
			<rect x="70.619" y="256.145" style="fill:#F5F5F5;" width="125.313" height="119.732"/>
			<rect x="82.035" y="302.212" style="fill:#F0F0F0;" width="102.481" height="27.598"/>
			<rect x="82.035" y="335.966" style="fill:#F0F0F0;" width="102.481" height="27.598"/>
			<path style="fill:#F5F5F5;" d="M121.254,305.911h24.044c1.273,0,2.314-1.041,2.314-2.314l0,0c0-1.273-1.042-2.314-2.314-2.314
				h-24.044c-1.273,0-2.314,1.042-2.314,2.314l0,0C118.939,304.87,119.981,305.911,121.254,305.911z"/>
			<rect x="82.035" y="268.457" style="fill:#F0F0F0;" width="102.481" height="27.598"/>
			<path style="fill:#F5F5F5;" d="M121.254,272.157h24.044c1.273,0,2.314-1.042,2.314-2.314l0,0c0-1.273-1.042-2.314-2.314-2.314
				h-24.044c-1.273,0-2.314,1.041-2.314,2.314l0,0C118.939,271.115,119.981,272.157,121.254,272.157z"/>
			<path style="fill:#F5F5F5;" d="M121.254,339.666h24.044c1.273,0,2.314-1.042,2.314-2.314v0c0-1.273-1.042-2.314-2.314-2.314
				h-24.044c-1.273,0-2.314,1.042-2.314,2.314v0C118.939,338.624,119.981,339.666,121.254,339.666z"/>
		</g>
		
			<rect x="66.75" y="249.846" transform="matrix(-1 -1.224647e-16 1.224647e-16 -1 262.6825 505.9913)" style="fill:#F0F0F0;" width="129.182" height="6.298"/>
		<rect x="195.932" y="249.846" style="fill:#E6E6E6;" width="33.095" height="6.298"/>
	</g>
	<g>
		<g>
			<path style="fill:#E0E0E0;" d="M389.758,183.186l-7.172-10.855c0.253,62.86,1.31,66.483,1.285,77.296h5.746
				C390.417,197.012,392.638,196.689,389.758,183.186z"/>
			<g>
				<path style="fill:#FAFAFA;" d="M386.989,268.354L386.989,268.354c16.488,0,30.4-6.694,33.784-15.741
					c0.895-2.393,1.914-4.77,3.522-7.036l0.259-0.365h-75.128l0.259,0.365c1.607,2.265,2.626,4.643,3.522,7.036
					C356.589,261.66,370.5,268.354,386.989,268.354z"/>
				<path style="fill:#F0F0F0;" d="M349.271,247.479h75.436c2.096,0,3.927-1.419,4.449-3.449l0,0
					c0.748-2.907-1.447-5.739-4.449-5.739h-75.436c-3.002,0-5.197,2.832-4.449,5.739l0,0
					C345.344,246.06,347.175,247.479,349.271,247.479z"/>
			</g>
		</g>
		<path style="fill:#E0E0E0;" d="M387.589,174.444c-1.427-16.995-18.915-18.688-51.635-26.698
			C352.03,194.042,392.966,238.469,387.589,174.444z"/>
		<path style="fill:#E0E0E0;" d="M382.853,165.507c-2.423-13.495,0.104-27.807,38.022-26.409
			C411.365,176.274,394.106,228.186,382.853,165.507z"/>
		<path style="fill:#E0E0E0;" d="M384.566,198.473c1.15-15.557,13.134-33.99,52.355-20.731
			C419.48,207.917,381.793,235.973,384.566,198.473z"/>
	</g>
</g>
<g id="Background_Simple" style="display:none;">
	<g style="display:inline;">
		<path style="fill:#407BFF;" d="M6462.21,210.08c-30.663,17.62-66.779,41.095-44.861,81.616
			c17.778,32.867,69.265,37.266,102.047,30.042c37.75-8.319,49.796-42.014,80.171-61.294c30.941-19.639,72.885,8.308,101.433-12.444
			c27.769-20.186,18.243-69.769,2.219-94.862c-19.644-30.761-57.263-44.691-91.395-51.957c-36.375-7.743-76.664-7.03-101.821,24.465
			C6486.698,154.823,6498.565,189.189,6462.21,210.08z"/>
		<path style="opacity:0.9;fill:#FFFFFF;" d="M6462.21,210.08c-30.663,17.62-66.779,41.095-44.861,81.616
			c17.778,32.867,69.265,37.266,102.047,30.042c37.75-8.319,49.796-42.014,80.171-61.294c30.941-19.639,72.885,8.308,101.433-12.444
			c27.769-20.186,18.243-69.769,2.219-94.862c-19.644-30.761-57.263-44.691-91.395-51.957c-36.375-7.743-76.664-7.03-101.821,24.465
			C6486.698,154.823,6498.565,189.189,6462.21,210.08z"/>
	</g>
</g>
<g id="Shadow_1_">
	<ellipse id="_x3C_Path_x3E__88_" style="fill:#F5F5F5;" cx="250" cy="416.238" rx="193.889" ry="11.323"/>
</g>
<g id="Table">
	<g>
		<g>
			<g>
				
					<rect x="134.755" y="269.619" transform="matrix(-1 -1.224647e-16 1.224647e-16 -1 392.2227 545.8553)" style="fill:#407BFF;" width="122.712" height="6.617"/>
				
					<rect x="134.755" y="269.619" transform="matrix(-1 -1.224647e-16 1.224647e-16 -1 392.2227 545.8553)" style="opacity:0.5;fill:#FFFFFF;" width="122.712" height="6.617"/>
				<g>
					<rect x="78.564" y="269.619" style="fill:#407BFF;" width="56.191" height="6.617"/>
					<rect x="78.564" y="269.619" style="opacity:0.5;fill:#FFFFFF;" width="56.191" height="6.617"/>
					<rect x="78.564" y="269.619" style="opacity:0.2;" width="56.191" height="6.617"/>
				</g>
			</g>
			<g>
				<polygon style="fill:#407BFF;" points="82.357,283.295 253.675,283.295 255.154,276.236 80.878,276.236 				"/>
				<polygon style="opacity:0.6;" points="82.357,283.295 253.675,283.295 255.154,276.236 80.878,276.236 				"/>
			</g>
			<g>
				<polygon style="fill:#407BFF;" points="235.891,283.295 235.891,412.527 232.019,412.527 227.142,283.295 				"/>
				<polygon style="opacity:0.5;fill:#FFFFFF;" points="235.891,283.295 235.891,412.527 232.019,412.527 227.142,283.295 				"/>
			</g>
			<g>
				<polygon style="fill:#407BFF;" points="190.152,283.295 190.152,412.527 186.28,412.527 181.403,283.295 				"/>
				<polygon style="opacity:0.5;fill:#FFFFFF;" points="190.152,283.295 190.152,412.527 186.28,412.527 181.403,283.295 				"/>
			</g>
			<g>
				<polygon style="fill:#407BFF;" points="90.993,283.295 90.993,412.527 94.865,412.527 99.742,283.295 				"/>
				<polygon style="opacity:0.5;fill:#FFFFFF;" points="90.993,283.295 90.993,412.527 94.865,412.527 99.742,283.295 				"/>
			</g>
			<g>
				<polygon style="fill:#407BFF;" points="136.732,283.295 136.732,412.527 140.604,412.527 145.481,283.295 				"/>
				<polygon style="opacity:0.5;fill:#FFFFFF;" points="136.732,283.295 136.732,412.527 140.604,412.527 145.481,283.295 				"/>
			</g>
		</g>
	</g>
</g>
<g id="Character_3">
	<g>
		<path style="fill:#FF8B7B;" d="M397.311,186.545c2.189,4.265,4.195,8.528,6.128,12.883c1.915,4.354,3.721,8.768,5.373,13.312
			c0.392,1.156,0.804,2.285,1.171,3.468l0.282,0.879l0.141,0.439c0.049,0.157,0.154,0.521,0.211,0.769
			c0.247,1.095,0.29,2.129,0.224,3.048c-0.154,1.845-0.644,3.331-1.187,4.677c-0.547,1.344-1.204,2.534-1.895,3.659
			c-2.804,4.462-6.119,7.977-9.888,11.251l-3.69-3.38c2.433-3.763,4.87-7.762,6.508-11.584c0.399-0.954,0.731-1.9,0.968-2.77
			c0.234-0.865,0.33-1.682,0.276-2.187c-0.015-0.254-0.077-0.4-0.114-0.445c-0.021-0.035,0,0.047-0.045-0.073l-0.156-0.39
			l-0.311-0.779c-0.4-1.036-0.868-2.085-1.302-3.126c-1.803-4.19-3.758-8.385-5.744-12.574l-5.986-12.554L397.311,186.545z"/>
		<path style="fill:#FF8B7B;" d="M395.281,236.3l-4.527,1.943l4.502,6.25c0,0,3.286-1.848,3.693-5.051L395.281,236.3z"/>
		<polygon style="fill:#FF8B7B;" points="384.621,241.358 389.612,246.039 395.256,244.493 390.754,238.243 		"/>
		<path style="fill:#263238;" d="M366.072,155.189c-0.107,0.527-0.473,0.897-0.818,0.827c-0.344-0.07-0.537-0.554-0.43-1.081
			c0.107-0.527,0.473-0.897,0.818-0.827C365.986,154.178,366.179,154.662,366.072,155.189z"/>
		<path style="fill:#ED847E;" d="M365.647,156.096c0,0-1.816,2.796-3.433,3.995c0.755,1.059,2.421,0.984,2.421,0.984
			L365.647,156.096z"/>
		<path style="fill:#263238;" d="M368.595,152.655c-0.085,0-0.17-0.034-0.232-0.102c-0.946-1.024-2.071-0.857-2.118-0.85
			c-0.173,0.026-0.334-0.089-0.362-0.26c-0.028-0.172,0.086-0.333,0.258-0.362c0.059-0.011,1.501-0.237,2.686,1.045
			c0.119,0.128,0.111,0.328-0.017,0.446C368.749,152.628,368.672,152.655,368.595,152.655z"/>
		<path style="fill:#FF8B7B;" d="M381.081,162.6c-0.956,4.877-1.91,13.812,1.502,17.066c0,0-1.333,4.947-10.395,4.947
			c-9.964,0-4.762-4.946-4.762-4.946c5.438-1.299,5.298-5.333,4.35-9.122L381.081,162.6z"/>
		<path style="fill:#407BFF;" d="M384.915,181.223c0.739-1.563,1.551-3.351-0.28-3.835c-2.014-0.533-12.942-0.754-16.661,0.518
			c-3.719,1.272-2.54,4.346-2.54,4.346L384.915,181.223z"/>
		<path style="fill:#407BFF;" d="M364.853,409.036c-0.856,0-1.682-0.118-1.959-0.502c-0.097-0.134-0.173-0.363,0.013-0.69
			c0.104-0.183,0.273-0.308,0.5-0.369c1.109-0.302,3.439,1.026,3.538,1.083c0.057,0.033,0.088,0.098,0.077,0.162
			c-0.011,0.065-0.061,0.117-0.125,0.129C366.472,408.933,365.65,409.036,364.853,409.036z M363.795,407.743
			c-0.111,0-0.214,0.011-0.305,0.036c-0.146,0.04-0.247,0.112-0.309,0.221c-0.112,0.196-0.071,0.293-0.031,0.349
			c0.31,0.431,1.995,0.441,3.234,0.266C365.767,408.297,364.574,407.743,363.795,407.743z"/>
		<path style="fill:#407BFF;" d="M366.866,408.852c-0.022,0-0.044-0.005-0.065-0.014c-0.805-0.361-2.398-1.803-2.277-2.556
			c0.029-0.177,0.154-0.397,0.588-0.441c0.324-0.033,0.617,0.058,0.875,0.271c0.848,0.697,1.027,2.492,1.035,2.568
			c0.005,0.056-0.02,0.111-0.065,0.143C366.931,408.841,366.898,408.852,366.866,408.852z M365.24,406.149
			c-0.031,0-0.063,0.002-0.095,0.005c-0.284,0.029-0.302,0.141-0.308,0.177c-0.073,0.452,1.01,1.585,1.831,2.079
			c-0.085-0.524-0.323-1.599-0.88-2.056C365.62,406.217,365.44,406.149,365.24,406.149z"/>
		<polygon style="fill:#FF8B7B;" points="374.196,408.694 367.53,408.694 366.866,393.257 373.532,393.257 		"/>
		<polygon style="fill:#FF8B7B;" points="422.24,401.336 415.613,402.056 410.614,387.072 417.241,386.352 		"/>
		<path style="fill:#407BFF;" d="M412.582,403.574c-0.829,0.211-1.659,0.301-2.022-0.003c-0.127-0.106-0.258-0.31-0.157-0.672
			c0.056-0.203,0.189-0.365,0.394-0.481c1.001-0.566,3.586,0.146,3.696,0.176c0.063,0.018,0.109,0.073,0.115,0.138
			c0.006,0.065-0.03,0.128-0.089,0.156C414.126,403.076,413.355,403.378,412.582,403.574z M411.239,402.582
			c-0.108,0.027-0.205,0.064-0.287,0.11c-0.132,0.074-0.211,0.169-0.245,0.29c-0.06,0.217,0.004,0.302,0.056,0.346
			c0.407,0.341,2.042-0.065,3.2-0.541C413.286,402.634,411.994,402.39,411.239,402.582z"/>
		<path style="fill:#407BFF;" d="M414.488,402.899c-0.021,0.005-0.044,0.006-0.066,0.003c-0.869-0.151-2.769-1.155-2.837-1.916
			c-0.016-0.179,0.051-0.423,0.461-0.573c0.306-0.112,0.612-0.095,0.915,0.046c0.994,0.466,1.611,2.161,1.637,2.234
			c0.019,0.053,0.008,0.112-0.028,0.155C414.549,402.874,414.52,402.891,414.488,402.899z M412.246,400.682
			c-0.03,0.008-0.061,0.017-0.091,0.028c-0.268,0.098-0.258,0.211-0.255,0.248c0.041,0.457,1.37,1.287,2.287,1.563
			c-0.212-0.487-0.707-1.47-1.36-1.775C412.631,400.653,412.44,400.632,412.246,400.682z"/>
		<path style="fill:#263238;" d="M415.229,401.44l7.191-2.09c0.262-0.076,0.541,0.04,0.672,0.279l2.918,5.322
			c0.303,0.552,0.001,1.245-0.606,1.411c-2.523,0.687-3.786,0.894-6.948,1.813c-1.946,0.565-5.895,1.933-8.582,2.714
			c-2.628,0.764-3.81-1.774-2.78-2.334c4.618-2.512,6.044-4.54,7.21-6.419C414.515,401.797,414.846,401.552,415.229,401.44z"/>
		<path style="fill:#263238;" d="M367.574,407.922l7.28,0c0.272,0,0.509,0.189,0.568,0.455l1.317,5.925
			c0.137,0.614-0.33,1.196-0.959,1.186c-2.626-0.045-6.421-0.199-9.721-0.199c-3.859,0-5.961,0.211-10.487,0.211
			c-2.737,0-3.496-2.767-2.351-3.017c5.215-1.141,8.241-1.263,12.748-4.042C366.458,408.139,366.999,407.922,367.574,407.922z"/>
		<path style="fill:#FF8B7B;" d="M362.773,191.754c-0.886,2.331-1.837,4.384-2.851,6.527c-1.001,2.122-2.116,4.192-3.283,6.249
			c-2.373,4.091-5.026,8.089-8.412,11.801c-0.431,0.46-0.864,0.919-1.325,1.367c-0.226,0.225-0.453,0.45-0.696,0.669l-0.774,0.71
			c-0.526,0.454-1.307,1.067-2.61,1.424c-0.634,0.173-1.429,0.239-2.171,0.133c-0.378-0.046-0.71-0.142-1.055-0.251
			c-0.328-0.112-0.595-0.242-0.881-0.39c-1.039-0.589-1.552-1.197-1.955-1.701c-0.4-0.519-0.646-0.957-0.858-1.369
			c-0.795-1.619-1.089-2.875-1.395-4.144c-0.279-1.254-0.459-2.461-0.615-3.652c-0.582-4.759-0.645-9.321-0.398-13.986l4.992-0.365
			c0.988,4.311,1.957,8.714,3.112,12.798c0.288,1.017,0.61,2.007,0.945,2.92c0.317,0.892,0.725,1.794,1.011,2.154
			c0.062,0.08,0.117,0.121,0.075,0.036c-0.048-0.07-0.155-0.271-0.696-0.592c-0.157-0.093-0.301-0.152-0.495-0.223
			c-0.208-0.08-0.407-0.117-0.644-0.158c-0.464-0.074-0.972-0.023-1.337,0.068c-0.761,0.203-1.059,0.496-1.175,0.566l0.433-0.472
			c0.164-0.171,0.323-0.355,0.482-0.541c0.321-0.362,0.632-0.749,0.944-1.135c2.483-3.133,4.684-6.785,6.691-10.556
			c1.021-1.881,1.961-3.822,2.908-5.761c0.928-1.921,1.83-3.976,2.63-5.823L362.773,191.754z"/>
		<g>
			<path style="fill:#263238;" d="M394.518,181.173c6.248,1.432,12.564,19.7,12.564,19.7l-12.861,9.225
				c0,0-3.593-8.508-7.127-15.949C383.392,186.353,388.13,179.709,394.518,181.173z"/>
		</g>
		<g>
			<path style="fill:#263238;" d="M357.173,181.517c0,0-7.095,8.014-0.395,57.616c10.743,0,30.427,0,35.654,0
				c0.245-5.473-3.193-32.172,2.085-57.96c0,0-6.111-1.226-11.935-1.507c-4.556-0.22-11.151-0.365-15.156,0.001
				C362.146,180.148,357.173,181.517,357.173,181.517z"/>
		</g>
		<g>
			<path style="fill:#263238;" d="M366.012,188.273c2.24,5.966-8.02,21.882-8.02,21.882l-15.216-9.156c0,0,6.346-7.068,9.915-14.5
				C357.621,176.236,364.197,183.44,366.012,188.273z"/>
		</g>
		<path style="fill:#FF8B7B;" d="M335.203,198.089l-6.395-2.692l3.334-5.202c0,0,4.529,0.477,6.194,3.458
			c0.495,0.886,0.231,1.993-0.618,2.609L335.203,198.089z"/>
		<polygon style="fill:#FF8B7B;" points="323.616,191.5 329.2,187.808 332.142,190.195 328.808,195.397 		"/>
		<g>
			<polygon style="opacity:0.2;" points="366.868,393.261 367.209,401.218 373.878,401.218 373.536,393.261 			"/>
			<polygon style="opacity:0.2;" points="417.243,386.355 410.614,387.076 413.391,395.388 419.824,394.079 			"/>
		</g>
		<path style="fill:#FF8B7B;" d="M383.872,157.644c-1.713,6.39-2.39,10.217-6.334,12.874c-5.931,3.997-13.317-0.59-13.548-7.363
			c-0.208-6.096,2.628-15.522,9.485-16.81C380.232,145.077,385.585,151.254,383.872,157.644z"/>
		<path style="fill:#263238;" d="M388.053,153.878c0.874,0.211,2.666,0.086,4.279-3.555c2.233-5.041-7.564-3.602-7.564-3.602
			s8.97-4.085,1.319-7.976c-5.014-2.55-6.872-0.182-7.559,1.755c0.201-1.999-0.291-4.659-4.874-3.252
			c-6.986,2.144-1.953,7.687-1.953,7.687s-2.405-1.862-4.946,0.368c-2.234,1.96-0.472,4.827,1.687,7.35
			c-1.288,1.816-1.858,3.984,1.611,4.804c0.009,0.002,0.019,0.004,0.028,0.007c1.289,0.295,2.226,1.303,2.232,2.624
			c0.015,3.409,0.123,6.195,2.493,8.368c2.287,2.096,10.636-0.929,10.21-5.794c2.054-0.254,3.988-0.987,5.534-2.213
			C394.783,157.088,389.775,154.594,388.053,153.878z"/>
		<path style="fill:#FF8B7B;" d="M374.758,157.751c-0.696,1.587-2.013,2.835-3.288,3.499c-1.918,0.998-2.995-0.462-2.561-2.38
			c0.39-1.727,1.859-4.327,3.831-4.54C374.683,154.12,375.553,155.936,374.758,157.751z"/>
		<path style="fill:#407BFF;" d="M369.426,239.133c0,0,7.565,50.943,11.718,70.027c4.548,20.899,28.466,84.892,28.466,84.892
			l12.008-2.208c0,0-17.881-60.097-20.476-80.79c-2.817-22.458-8.71-71.922-8.71-71.922H369.426z"/>
		<path style="opacity:0.2;" d="M374.207,257.284c8.747,1.715,7.822,34.335,6.769,51.113c-2.522-11.859-6.215-34.68-8.738-50.877
			C372.819,257.229,373.472,257.139,374.207,257.284z"/>
		<path style="fill:#407BFF;" d="M356.778,239.133c0,0-0.918,49.84-0.193,70.168c0.754,21.144,8.139,90.376,8.139,90.376h11.292
			c0,0,0.415-67.997,0.917-88.762c0.548-22.638,3.281-71.782,3.281-71.782H356.778z"/>
		<g>
			<path style="fill:#263238;" d="M406.879,389.982c-0.051,0.009,2.088,4.383,2.088,4.383l13.51-2.484l-1.005-4.069L406.879,389.982
				z"/>
		</g>
		<g>
			<path style="fill:#263238;" d="M362.552,395.179c-0.052,0,0.637,4.688,0.637,4.688h13.736l0.372-4.184L362.552,395.179z"/>
		</g>
	</g>
</g>
<g id="Character_2">
	<g>
		<polygon style="fill:#7F3E3B;" points="249.402,408.405 256.556,408.405 256.512,391.839 249.358,391.839 		"/>
		<polygon style="fill:#7F3E3B;" points="211.4,408.405 218.554,408.405 220.917,391.839 213.763,391.839 		"/>
		<path style="fill:#263238;" d="M219.001,407.577h-8.037c-0.293,0-0.531,0.203-0.573,0.489l-0.94,6.359
			c-0.098,0.66,0.467,1.284,1.142,1.272c2.802-0.048,4.153-0.213,7.688-0.213c2.174,0,6.671,0.226,9.674,0.226
			c2.937,0,3.174-2.969,1.924-3.238c-5.602-1.206-7.802-2.868-9.684-4.455C219.855,407.731,219.429,407.577,219.001,407.577z"/>
		<path style="fill:#263238;" d="M256.471,407.577h-7.812c-0.292,0-0.536,0.203-0.587,0.489l-1.123,6.359
			c-0.116,0.659,0.413,1.284,1.087,1.272c2.816-0.048,6.881-0.213,10.423-0.213c4.142,0,7.729,0.226,12.586,0.226
			c2.937,0,3.616-2.969,2.375-3.238c-5.652-1.224-10.228-1.355-15.2-4.337C257.679,407.81,257.088,407.577,256.471,407.577z"/>
		<path style="fill:#7F3E3B;" d="M251.024,182.137l9.762-3.131c0,0,9.02,24.68,11.607,27.292
			c3.521,3.555,8.552,13.005,11.338,18.246c-0.321,1.17-2.035,3.891-3.014,4.393c-6.888-4.933-16.047-14.353-17.997-18.503
			C258.274,200.973,251.024,182.137,251.024,182.137z"/>
		<path style="fill:#407BFF;" d="M248.741,176.765c-3.284,5.998,8.276,26.137,8.276,26.137l14.595-6.76
			c0,0-3.339-9.408-7.236-17.468C260.679,171.03,252.38,170.118,248.741,176.765z"/>
		<path style="fill:#7F3E3B;" d="M283.087,223.538l7.361,4.474l-5.433,7.482c0,0-3.335-3.19-5.663-7.82L283.087,223.538z"/>
		<polygon style="fill:#7F3E3B;" points="295.84,234.314 291.091,237.726 285.015,235.494 290.448,228.012 		"/>
		<g>
			<polygon style="opacity:0.2;" points="256.511,391.843 256.534,400.382 249.378,400.382 249.354,391.843 			"/>
			<polygon style="opacity:0.2;" points="213.761,391.843 220.917,391.843 219.696,400.382 212.539,400.382 			"/>
		</g>
		<path style="fill:#407BFF;" d="M258.089,172.705c0,0,8.973,24.582,1.939,64.813c-11.529,0-32.653,0-38.263,0
			c-0.408-5.874,2.581-37.506-3.763-65.182c0,0,6.526-1.316,12.769-1.617c4.883-0.236,11.958-0.392,16.265,0.001
			C252.716,171.236,258.089,172.705,258.089,172.705z"/>
		<path style="fill:#FFFFFF;" d="M237.932,172.839c0,0,6.459,8.419,5.098,64.679h7.102c0,0,2.691-48.16-5.243-65.165
			C242.727,172.125,237.932,172.839,237.932,172.839z"/>
		<path style="opacity:0.2;" d="M226.481,179.169c0.749,4.554-0.421,15.452-4.45,28.044c-0.251-9.691-1.109-20.928-3.431-32.124
			l-0.001-0.054C221.115,174.777,225.767,174.899,226.481,179.169z"/>
		<path style="fill:#7F3E3B;" d="M232.524,155.507c1.154,5.234,1.823,11.72-1.753,15.212c0,0,2.233,5.309,11.958,5.309
			c8.886,0,4.308-5.308,4.308-5.308c-5.87-1.394-5.743-8.611-4.826-12.677L232.524,155.507z"/>
		<g>
			<path style="fill:#407BFF;" d="M230.771,170.268c0,0,4.068,4.108,11.272,5.75c-1.711,1.163-3.911,5.324-3.911,5.324
				s-8.258-3.15-9.887-10.673C229.005,170.48,230.771,170.268,230.771,170.268z"/>
			<path style="opacity:0.3;" d="M230.771,170.268c0,0,4.068,4.108,11.272,5.75c-1.711,1.163-3.911,5.324-3.911,5.324
				s-8.258-3.15-9.887-10.673C229.005,170.48,230.771,170.268,230.771,170.268z"/>
		</g>
		<g>
			<path style="fill:#407BFF;" d="M246.287,170.068c0,0,2.272,4.775-1.889,5.886c3.277,1.537,5.003,4.613,5.003,4.613
				s2.936-5.864-0.588-10.097C248.053,170.279,246.287,170.068,246.287,170.068z"/>
			<path style="opacity:0.3;" d="M246.287,170.068c0,0,2.272,4.775-1.889,5.886c3.277,1.537,5.003,4.613,5.003,4.613
				s2.936-5.864-0.588-10.097C248.053,170.279,246.287,170.068,246.287,170.068z"/>
		</g>
		<path style="opacity:0.2;" d="M242.216,158.046c-0.547,2.382-0.814,5.848,0.25,8.592c-0.344,0.251-1.719,0.592-2.67,0.4
			c-2.135-0.431-3.427-1.413-5.205-5.035c-0.149-0.928-1.868-5.617-2.065-6.495L242.216,158.046z"/>
		<g>
			<path style="fill:#7F3E3B;" d="M250.052,150.149c0.217,1.893-0.471,3.691-1.479,4.877c-1.515,1.784-3.63,0.729-4.347-1.397
				c-0.645-1.913-0.634-5.148,1.433-6.154C247.697,146.484,249.805,147.984,250.052,150.149z"/>
			<path style="opacity:0.2;" d="M250.052,150.149c0.217,1.893-0.471,3.691-1.479,4.877c-1.515,1.784-3.63,0.729-4.347-1.397
				c-0.645-1.913-0.634-5.148,1.433-6.154C247.697,146.484,249.805,147.984,250.052,150.149z"/>
		</g>
		<path style="fill:#7F3E3B;" d="M227.711,149.886c2.923,6.542,3.346,10.215,7.661,13.029c6.49,4.233,14.216-0.795,14.211-8.091
			c-0.004-6.567-3.408-16.566-10.765-17.988C230.771,135.281,223.98,141.537,227.711,149.886z"/>
		<path style="fill:#7F3E3B;" d="M226.596,156.044c1.247,1.469,2.88,2.358,4.235,2.631c2.039,0.41,2.348-1.539,1.186-3.457
			c-1.046-1.727-2.894-5.091-5.127-3.564C225.413,152.665,225.171,154.364,226.596,156.044z"/>
		<path style="fill:#263238;" d="M250.221,154.829c0.223,4.418,4.637,9.99-3.292,11.266c-5.333,0.858-9.328-0.963-11.879-2.544
			c-3.475-2.153-4.496-8.213-7.19-12.275c-0.119-0.146-0.064-0.325,0.085-0.511c0.655-0.817,1.951-0.623,2.472,0.286
			c0.899,1.569,2.586,3.859,4.844,4.022C238.718,155.324,249.994,150.313,250.221,154.829z"/>
		<path style="fill:#263238;" d="M234.876,237.518c0,0,0.952,8.993,2.176,21.188c1.395,13.816,3.131,31.752,4.23,45.421
			c0.001,0.069,0.012,0.127,0.013,0.186c0.211,2.597,0.399,5.028,0.554,7.254c1.554,22.291,5.16,87.163,5.16,87.163h12.117
			c0,0,4.705-66.199,4.479-88.891c-0.216-21.813-3.578-72.321-3.578-72.321H234.876z"/>
		<path style="fill:#407BFF;" d="M246.037,394.466c-0.056,0,0.181,4.51,0.181,4.51h13.968l0.384-5.066L246.037,394.466z"/>
		<path style="opacity:0.2;" d="M237.052,258.706c1.395,13.816,3.131,31.752,4.23,45.421c0.001,0.069,0.012,0.127,0.013,0.186
			c2.695-12.957,5.156-24.752,2.515-44.01L237.052,258.706z"/>
		<path style="fill:#263238;" d="M246.452,237.518c0,0-4.171,51.691-7.103,72.172c-3.211,22.429-16.441,89.039-16.441,89.039
			h-13.103c0,0,7.102-64.799,8.234-87.006c1.228-24.102,3.723-74.205,3.723-74.205H246.452z"/>
		<path style="fill:#407BFF;" d="M209.435,394.331c-0.056,0-0.265,4.645-0.265,4.645h14.402l0.962-4.788L209.435,394.331z"/>
		<path style="fill:#263238;" d="M239.002,148.805c0.134,0.566,0.539,0.96,0.905,0.881s0.553-0.603,0.419-1.169
			c-0.134-0.566-0.539-0.961-0.905-0.881C239.056,147.716,238.868,148.239,239.002,148.805z"/>
		<path style="fill:#263238;" d="M245.324,147.43c0.134,0.566,0.539,0.96,0.905,0.881s0.553-0.603,0.419-1.169
			c-0.134-0.566-0.539-0.96-0.905-0.881C245.378,146.341,245.19,146.864,245.324,147.43z"/>
		<path style="fill:#630F0F;" d="M243.381,148.149c0,0,2.045,2.989,3.819,4.26c-0.768,1.15-2.552,1.089-2.552,1.089L243.381,148.149
			z"/>
		<path style="fill:#7F3E3B;" d="M243.399,157.371c0.09-0.022,0.143-0.115,0.119-0.206c-0.024-0.091-0.118-0.147-0.207-0.124
			c-2.438,0.607-4.039-0.831-4.055-0.846c-0.071-0.063-0.178-0.06-0.238,0.009c-0.062,0.068-0.056,0.175,0.014,0.24
			C239.101,156.507,240.785,158.022,243.399,157.371z"/>
		<path style="fill:#263238;" d="M236.608,147.156c0.099-0.022,0.187-0.088,0.23-0.189c0.605-1.375,1.829-1.567,1.842-1.567
			c0.174-0.018,0.309-0.198,0.278-0.385c-0.031-0.186-0.205-0.315-0.389-0.289c-0.065,0.009-1.6,0.247-2.349,1.954
			c-0.075,0.171,0.003,0.373,0.174,0.452C236.464,147.164,236.539,147.171,236.608,147.156z"/>
		<path style="fill:#263238;" d="M247.627,144.545c0.047-0.014,0.093-0.038,0.131-0.074c0.136-0.124,0.144-0.339,0.016-0.48
			c-1.275-1.405-2.814-1.189-2.878-1.179c-0.18,0.02-0.307,0.2-0.275,0.387c0.032,0.185,0.206,0.313,0.389,0.286l0,0
			c0.051-0.008,1.253-0.163,2.271,0.958C247.372,144.544,247.508,144.579,247.627,144.545z"/>
		<path style="fill:#7F3E3B;" d="M213.86,181.704l9.487,4.39c0,0-9.145,23.313-7.583,26.608c2.126,4.484,3.793,14.46,7.268,19.274
			c-0.18,1.173-1.58,4-2.51,4.591c-7.596-4.087-15.079-19.001-15.49-23.478C204.094,202.88,213.86,181.704,213.86,181.704z"/>
		<path style="fill:#407BFF;" d="M218.002,172.336c-6.744,0.984-13.921,24.438-13.921,24.438l16.407,7.225
			c0,0,3.993-10.351,6.877-18.634C230.387,176.686,225.236,171.28,218.002,172.336z"/>
		<path style="fill:#407BFF;" d="M221.46,408.826c0.545,0,1.047-0.093,1.35-0.364c0.241-0.216,0.336-0.518,0.283-0.896
			c-0.038-0.282-0.198-0.416-0.326-0.479c-0.813-0.405-3.023,1.011-3.272,1.174c-0.055,0.037-0.08,0.105-0.065,0.172
			c0.016,0.066,0.071,0.121,0.138,0.136C220.075,408.689,220.798,408.826,221.46,408.826z M222.413,407.346
			c0.089,0,0.164,0.013,0.223,0.042c0.047,0.024,0.104,0.068,0.121,0.198c0.037,0.27-0.022,0.471-0.184,0.616
			c-0.366,0.33-1.297,0.373-2.53,0.128C220.816,407.863,221.865,407.346,222.413,407.346z"/>
		<path style="fill:#407BFF;" d="M219.609,408.574c0.028,0,0.055-0.007,0.079-0.02c0.711-0.402,2.025-1.97,1.814-2.768
			c-0.038-0.144-0.163-0.394-0.572-0.443c-0.268-0.033-0.503,0.041-0.705,0.217c-0.781,0.679-0.798,2.744-0.798,2.831
			c-0.001,0.062,0.034,0.122,0.088,0.155C219.544,408.565,219.577,408.574,219.609,408.574z M220.837,405.674
			c0.025,0,0.051,0.003,0.077,0.005c0.222,0.026,0.249,0.128,0.26,0.171c0.125,0.471-0.699,1.656-1.393,2.215
			c0.038-0.604,0.177-1.807,0.678-2.242C220.573,405.723,220.697,405.674,220.837,405.674z"/>
		<path style="fill:#407BFF;" d="M259.503,408.827c0.71,0,1.362-0.11,1.718-0.439c0.227-0.209,0.321-0.487,0.279-0.825
			c-0.024-0.201-0.128-0.357-0.3-0.45c-0.89-0.488-3.7,0.973-4.018,1.141c-0.062,0.033-0.095,0.103-0.081,0.175
			c0.013,0.072,0.069,0.128,0.141,0.143C257.854,408.692,258.715,408.827,259.503,408.827z M260.73,407.346
			c0.132,0,0.241,0.02,0.319,0.062c0.069,0.038,0.104,0.093,0.115,0.181c0.028,0.229-0.031,0.408-0.18,0.545
			c-0.422,0.391-1.597,0.457-3.188,0.195C258.765,407.858,260.053,407.346,260.73,407.346z"/>
		<path style="fill:#407BFF;" d="M257.276,408.574c0.024,0,0.047-0.005,0.069-0.015c0.845-0.388,2.486-1.934,2.318-2.744
			c-0.039-0.189-0.185-0.426-0.652-0.473c-0.341-0.042-0.659,0.062-0.926,0.29c-0.876,0.748-0.981,2.674-0.985,2.756
			c-0.003,0.059,0.026,0.118,0.077,0.154C257.206,408.564,257.241,408.574,257.276,408.574z M258.889,405.674
			c0.033,0,0.068,0.003,0.102,0.005c0.306,0.032,0.331,0.151,0.34,0.191c0.1,0.486-1.007,1.701-1.863,2.23
			c0.066-0.563,0.269-1.716,0.843-2.205C258.484,405.747,258.674,405.674,258.889,405.674z"/>
		<path style="fill:#7F3E3B;" d="M222.183,231.851l6.745,0.99l-4.979,6.587c0,0-5.873-1.062-5.947-5.75L222.183,231.851z"/>
		<polygon style="fill:#7F3E3B;" points="233.65,237.426 228.846,243.162 223.949,239.428 228.928,232.841 		"/>
	</g>
</g>
<g id="Character_1">
	<g>
		<path style="fill:#263238;" d="M158.179,177.778c0,0-6.499-2.778-11.706,0.555c-5.206,3.333-0.933,3.921-6.651,6.523
			c-5.718,2.602,0.667,6.172,0,9.533c-0.798,4.023-7.51,5.722-3.727,10.389c3.783,4.667,32.338,7.063,35.449,1.254
			c3.111-5.809-4-5.772-2.278-10.708c1.722-4.935,2.628-8.126-2.167-11.213C162.306,181.024,163.6,175.5,158.179,177.778z"/>
		<path style="fill:#FFB573;" d="M178.173,219.976c0.277,1.628,0.629,3.461,1.024,5.186c0.415,1.744,0.804,3.499,1.298,5.221
			c0.958,3.455,2.115,6.838,3.486,10.097c0.325,0.826,0.722,1.606,1.079,2.414l0.098,0.215l0.025,0.069
			c0.01,0.042-0.004,0.015-0.054-0.005c-0.091-0.088-0.439-0.218-0.617-0.19c-0.176,0.016-0.125,0.073,0.049,0.024
			c0.172-0.042,0.433-0.151,0.712-0.309c0.565-0.317,1.214-0.785,1.838-1.316c2.542-2.157,4.967-5.025,7.264-7.787l2.977,1.831
			c-1.718,3.513-3.651,6.767-6.39,9.894c-0.711,0.769-1.469,1.54-2.457,2.257c-0.498,0.357-1.054,0.708-1.75,1.011
			c-0.689,0.294-1.572,0.567-2.681,0.52c-1.113-0.027-2.354-0.562-3.139-1.273c-0.385-0.343-0.718-0.716-0.962-1.066
			c-0.134-0.18-0.244-0.354-0.344-0.524c-0.122-0.199-0.172-0.299-0.229-0.403c-0.456-0.871-0.956-1.729-1.374-2.615
			c-1.731-3.527-3.148-7.169-4.257-10.883c-0.568-1.854-1.087-3.72-1.506-5.612c-0.423-1.914-0.809-3.741-1.08-5.804
			L178.173,219.976z"/>
		<g>
			<path style="fill:#263238;" d="M175.443,212.2c2.884,0.544,5.605,12.098,5.605,12.098l-7.485,5.811
				c0,0-8.241-11.309-6.254-14.567C169.376,212.149,171.235,211.407,175.443,212.2z"/>
		</g>
		<polygon style="opacity:0.2;" points="175.351,214.825 178.273,226.459 174.065,229.717 		"/>
		<path style="fill:#FFB573;" d="M197.172,231.895l5.629-0.957l-3.289,6.197c0,0-4.43,0.067-5.822-2.44l0.336-0.592
			C194.689,232.931,195.844,232.12,197.172,231.895z"/>
		<polygon style="fill:#FFB573;" points="207.655,232.604 205.712,238.156 199.512,237.135 202.801,230.938 		"/>
		<polygon style="fill:#FFB573;" points="189.212,408.886 195.866,407.062 192.085,391.531 185.431,393.355 		"/>
		<path style="fill:#263238;" d="M195.872,405.889l-7.444,2.163c-0.271,0.079-0.436,0.331-0.397,0.606l0.863,6.136
			c0.089,0.636,0.783,1.062,1.404,0.87c2.582-0.799,3.788-1.314,7.062-2.265c2.014-0.585,7.859-2.056,10.64-2.864
			c2.72-0.79,2.13-3.601,0.9-3.513c-5.517,0.392-9.626-0.085-11.802-1.045C196.705,405.801,196.268,405.774,195.872,405.889z"/>
		<g style="opacity:0.2;">
			<polygon points="192.085,391.535 194.035,399.54 187.378,401.366 185.428,393.361 			"/>
		</g>
		<g>
			<g>
				<path style="fill:#407BFF;" d="M175.443,212.2c0,0,3.353,0.949-0.672,41.767c-11.097,0.699-22.566,1.422-27.966,1.762
					c-0.248-11.412-0.677-18.431-7.589-41.447c0,0,5.779-1.644,11.777-2.313c4.692-0.523,8.538-0.917,12.699-0.8
					C169.177,211.324,175.443,212.2,175.443,212.2z"/>
			</g>
			<g style="opacity:0.4;">
				<path style="fill:#263238;" d="M175.443,212.2c0,0,3.353,0.949-0.672,41.767c-11.097,0.699-22.566,1.422-27.966,1.762
					c-0.248-11.412-0.677-18.431-7.589-41.447c0,0,5.779-1.644,11.777-2.313c4.692-0.523,8.538-0.917,12.699-0.8
					C169.177,211.324,175.443,212.2,175.443,212.2z"/>
			</g>
		</g>
		<path style="fill:#FFB573;" d="M151.35,197.592c1.059,4.035,2.33,11.472-0.357,14.378c0,0,1.378,4.074,8.97,3.596
			c8.348-0.526,3.729-4.396,3.729-4.396c-4.625-0.801-4.72-4.189-4.127-7.414L151.35,197.592z"/>
		<path style="fill:#FFB573;" d="M150.996,211.973c4.692-0.528,8.535-0.922,12.697-0.8c0.278,0.009,0.555,0.019,0.832,0.028
			c1.136,1.858,1.58,4.796-0.576,9.282c0,0-11.423-3.782-14.619-8.298C149.879,212.106,150.438,212.036,150.996,211.973z"/>
		<path style="opacity:0.2;" d="M154.699,200.107l4.862,3.646c-0.143,0.763-0.243,1.535-0.249,2.279
			c-1.757-0.142-4.523-1.804-4.822-3.615C154.34,201.514,154.441,200.403,154.699,200.107z"/>
		<path style="fill:#FFB573;" d="M146.497,190.789c1.977,6.556,2.674,9.373,6.839,11.995c6.265,3.944,13.885,0.082,13.906-6.933
			c0.019-6.314-3.217-15.974-10.353-17.086C149.859,177.67,144.52,184.233,146.497,190.789z"/>
		<path style="fill:#263238;" d="M158.163,178.389c0.826,3.167-6.73,14.333-10.952,17.389c-4-4.389-3.778-10.056-2.056-12.945
			C146.878,179.944,151.004,176.833,158.163,178.389z"/>
		<path style="fill:#263238;" d="M158.696,178.495c3.35,0.946,6.868,4.917,4.958,4.758
			C161.744,183.095,153.762,179.508,158.696,178.495z"/>
		<g>
			<g>
				<path style="fill:#407BFF;" d="M174.771,253.967c0,0,7.861,50.248,10.526,71.124c2.771,21.714,9.588,72.198,9.588,72.198
					l-8.959,2.603c0,0-13.367-49.475-17.361-70.61c-4.354-23.041-14.273-74.024-14.273-74.024L174.771,253.967z"/>
			</g>
			<g style="opacity:0.2;">
				<path d="M174.771,253.967c0,0,7.861,50.248,10.526,71.124c2.771,21.714,9.588,72.198,9.588,72.198l-8.959,2.603
					c0,0-13.367-49.475-17.361-70.61c-4.354-23.041-14.273-74.024-14.273-74.024L174.771,253.967z"/>
			</g>
		</g>
		<polygon style="fill:#263238;" points="185.243,400.439 195.755,397.385 195.552,393.807 183.661,396.817 		"/>
		<polygon style="fill:#FFB573;" points="168.846,405.921 175.492,407.775 177.269,393.273 170.369,393.273 		"/>
		<polygon style="opacity:0.2;" points="169.501,400.478 176.207,401.939 177.269,393.273 170.369,393.273 		"/>
		<path style="fill:#263238;" d="M175.79,407.096l-7.602-2.082c-0.277-0.076-0.566,0.045-0.697,0.289l-2.336,5.547
			c-0.302,0.566,0.034,1.272,0.676,1.436c2.666,0.683,3.421,0.794,6.764,1.71c2.057,0.563,6.947,2.94,12.246,2.94
			c2.833,0,2.526-2.988,1.337-3.248c-5.332-1.163-8.122-3.98-9.399-5.89C176.549,407.456,176.195,407.207,175.79,407.096z"/>
		<g>
			<path style="fill:#407BFF;" d="M168.412,254.348c0,0,26.917,57.501,24.544,75.535c-2.887,21.945-15.24,68.186-15.24,68.186
				l-9.411-1.863c0,0,4.982-46.42,6.947-67.914c2.142-23.431-26.861-41.608-28.697-72.547
				C154.292,255.258,168.412,254.348,168.412,254.348z"/>
		</g>
		<polygon style="fill:#263238;" points="167.407,398.381 178.397,400.795 179.45,397.046 167.593,394.41 		"/>
		<path style="fill:#407BFF;" d="M178.054,408.912c0.661,0.184,1.312,0.256,1.779,0.055c0.297-0.127,0.497-0.349,0.598-0.659
			c0.06-0.186,0.026-0.351-0.096-0.478c-0.631-0.657-3.834-0.092-4.197-0.025c-0.072,0.013-0.132,0.066-0.149,0.133
			c-0.018,0.066,0.011,0.131,0.071,0.162C176.578,408.365,177.322,408.708,178.054,408.912z M179.8,407.917
			c0.122,0.034,0.215,0.079,0.27,0.137c0.051,0.052,0.061,0.112,0.035,0.193c-0.067,0.21-0.194,0.353-0.387,0.435
			c-0.551,0.237-1.671-0.007-3.044-0.654C177.765,407.862,179.171,407.741,179.8,407.917z"/>
		<path style="fill:#407BFF;" d="M176.089,408.111c0.022,0.006,0.046,0.008,0.07,0.005c0.938-0.124,3.092-1.068,3.276-1.828
			c0.044-0.18,0.008-0.429-0.41-0.593c-0.308-0.121-0.64-0.115-0.983,0.019c-1.12,0.438-2.005,2.119-2.042,2.19
			c-0.027,0.052-0.024,0.111,0.008,0.155C176.029,408.084,176.057,408.102,176.089,408.111z M178.773,405.956
			c0.031,0.009,0.062,0.019,0.093,0.031c0.275,0.108,0.247,0.224,0.238,0.262c-0.111,0.456-1.636,1.246-2.643,1.492
			c0.291-0.48,0.95-1.453,1.685-1.74C178.368,405.916,178.574,405.9,178.773,405.956z"/>
		<path style="fill:#263238;" d="M157.522,190.054c0.128,0.542,0.518,0.913,0.872,0.83c0.354-0.083,0.537-0.59,0.41-1.132
			c-0.128-0.542-0.518-0.913-0.872-0.83C157.578,189.005,157.395,189.512,157.522,190.054z"/>
		<path style="fill:#263238;" d="M163.645,188.61c0.128,0.542,0.518,0.913,0.872,0.83c0.354-0.084,0.538-0.59,0.41-1.132
			c-0.128-0.542-0.518-0.913-0.872-0.829C163.7,187.562,163.517,188.068,163.645,188.61z"/>
		<path style="fill:#263238;" d="M163.905,187.545l1.213-0.682C165.118,186.863,164.69,188.037,163.905,187.545z"/>
		<path style="fill:#ED893E;" d="M161.987,190.031c0,0,1.469,2.115,2.746,3.002c-0.558,0.836-1.846,0.818-1.846,0.818
			L161.987,190.031z"/>
		<path style="fill:#263238;" d="M160.434,196.668c0.258-0.02,0.529-0.061,0.812-0.128c0.088-0.021,0.143-0.109,0.121-0.197
			c-0.021-0.088-0.116-0.141-0.196-0.122c-2.385,0.562-3.879-0.838-3.894-0.852c-0.065-0.062-0.168-0.06-0.231,0.005
			c-0.062,0.065-0.06,0.169,0.005,0.231C157.111,195.662,158.366,196.831,160.434,196.668z"/>
		<path style="fill:#FFB573;" d="M146.133,197.314c0.779,1.187,2.034,1.903,3.18,2.121c1.724,0.328,2.439-1.249,1.837-2.799
			c-0.542-1.395-2.092-3.247-3.763-2.875C145.739,194.128,145.242,195.957,146.133,197.314z"/>
		<path style="fill:#263238;" d="M154.77,189.386c0.138-0.011,0.258-0.108,0.292-0.249c0.354-1.47,2.158-2.202,2.176-2.209
			c0.168-0.067,0.25-0.257,0.183-0.424c-0.066-0.167-0.255-0.25-0.424-0.183c-0.087,0.035-2.138,0.868-2.571,2.663
			c-0.042,0.176,0.066,0.352,0.241,0.394C154.703,189.386,154.737,189.389,154.77,189.386z"/>
		<path style="fill:#263238;" d="M164.817,185.348c0.111-0.009,0.215-0.074,0.268-0.182c0.08-0.162,0.013-0.358-0.149-0.438
			c-1.621-0.799-2.929-0.044-2.983-0.012c-0.155,0.092-0.206,0.293-0.114,0.448c0.091,0.155,0.291,0.206,0.447,0.115l0,0
			c0.043-0.025,1.067-0.603,2.362,0.035C164.702,185.342,164.761,185.352,164.817,185.348z"/>
		<path style="fill:#FFB573;" d="M143.468,223.606c-0.607,3.662-1.212,7.416-1.763,11.122c-0.507,3.717-1.061,7.432-1.354,11.108
			l-0.101,1.326c-0.02,0.188-0.007,0.52,0.035,0.872c0.084,0.715,0.245,1.556,0.459,2.396c0.435,1.691,0.99,3.453,1.603,5.202
			c1.193,3.516,2.604,7.052,3.959,10.566l-3.086,1.64c-2.176-3.254-4.077-6.605-5.847-10.125c-0.857-1.774-1.684-3.576-2.369-5.535
			c-0.34-0.985-0.673-1.992-0.893-3.163c-0.107-0.59-0.2-1.21-0.205-1.977l0.024-1.534c0.102-3.949,0.377-7.831,0.849-11.684
			c0.443-3.864,1.005-7.657,1.754-11.508L143.468,223.606z"/>
		<g>
			<path style="fill:#263238;" d="M139.216,214.283c-2.748,1.029-5.505,10.888-5.505,10.888l11.36,7.087
				c0,0,3.457-8.304,2.051-11.851C145.658,216.713,142.352,213.109,139.216,214.283z"/>
		</g>
		<path style="fill:#407BFF;" d="M198.695,406.324c0.659-0.191,1.237-0.47,1.489-0.875c0.16-0.257,0.18-0.542,0.061-0.846
			c-0.071-0.182-0.205-0.3-0.388-0.34c-0.94-0.209-3.191,1.907-3.443,2.149c-0.05,0.048-0.065,0.122-0.036,0.186
			c0.029,0.063,0.094,0.102,0.163,0.095C197.137,406.642,197.965,406.536,198.695,406.324z M199.478,404.611
			c0.122-0.035,0.226-0.047,0.309-0.028c0.075,0.016,0.122,0.06,0.153,0.14c0.081,0.206,0.069,0.388-0.034,0.555
			c-0.297,0.478-1.369,0.858-2.908,1.041C197.78,405.618,198.85,404.793,199.478,404.611z"/>
		<path style="fill:#407BFF;" d="M196.573,406.687c0.022-0.006,0.042-0.017,0.06-0.033c0.686-0.586,1.833-2.469,1.493-3.184
			c-0.081-0.169-0.271-0.354-0.718-0.272c-0.33,0.061-0.597,0.237-0.79,0.523c-0.632,0.936-0.266,2.764-0.251,2.841
			c0.012,0.057,0.052,0.103,0.107,0.122C196.506,406.696,196.541,406.697,196.573,406.687z M197.371,403.543
			c0.031-0.009,0.063-0.017,0.096-0.023c0.295-0.054,0.347,0.055,0.364,0.091c0.204,0.429-0.53,1.861-1.193,2.583
			c-0.074-0.542-0.164-1.676,0.251-2.29C197.014,403.72,197.172,403.601,197.371,403.543z"/>
		<path style="fill:#263238;" d="M157.783,188.989l1.213-0.682C158.995,188.307,158.567,189.48,157.783,188.989z"/>
		<path style="fill:#263238;" d="M146.283,254.115l-0.557,2.548c-0.086,0.2,0.157,0.384,0.48,0.363l28.783-1.814
			c0.252-0.016,0.453-0.153,0.459-0.312l0.094-2.519c0.007-0.174-0.221-0.308-0.497-0.29l-28.32,1.785
			C146.517,253.889,146.338,253.986,146.283,254.115z"/>
		<g>
			<g>
				<path style="fill:#407BFF;" d="M150.286,257.042l-0.758,0.048c-0.151,0.01-0.271-0.061-0.267-0.157l0.151-3.275
					c0.004-0.096,0.132-0.182,0.283-0.192l0.758-0.048c0.151-0.009,0.271,0.061,0.267,0.157l-0.151,3.275
					C150.564,256.946,150.437,257.032,150.286,257.042z"/>
			</g>
			<g>
				<path style="fill:#407BFF;" d="M172.874,255.618l-0.758,0.048c-0.151,0.01-0.271-0.061-0.267-0.157l0.151-3.275
					c0.004-0.096,0.132-0.182,0.283-0.192l0.758-0.048c0.151-0.01,0.271,0.061,0.267,0.157l-0.151,3.275
					C173.152,255.523,173.025,255.609,172.874,255.618z"/>
			</g>
			<g>
				<path style="fill:#407BFF;" d="M161.58,256.33l-0.758,0.048c-0.151,0.009-0.271-0.061-0.267-0.157l0.151-3.275
					c0.004-0.096,0.132-0.182,0.283-0.191l0.758-0.048c0.151-0.01,0.271,0.061,0.267,0.157l-0.151,3.275
					C161.858,256.234,161.731,256.321,161.58,256.33z"/>
			</g>
		</g>
		<path style="fill:#FFB573;" d="M146.143,265.528l5.665,4.845l-6.923,1.138c0,0-2.737-3.483-1.587-6.111L146.143,265.528z"/>
		<polygon style="fill:#FFB573;" points="152.956,276.059 147.108,276.698 144.884,271.511 151.808,270.373 		"/>
	</g>
</g>
<g id="Brainstorm">
	<g>
		<circle style="fill:#407BFF;" cx="304.39" cy="115.967" r="49.8"/>
		<path style="fill:#407BFF;" d="M203.694,96.175l-0.666-0.747c4.037-3.598,9.233-5.579,14.633-5.579v1
			C212.508,90.85,207.548,92.741,203.694,96.175z"/>
		<path style="fill:#407BFF;" d="M197.98,104.488l-0.936-0.352c0.588-1.563,1.356-3.061,2.285-4.453l0.832,0.555
			C199.275,101.566,198.542,102.996,197.98,104.488z"/>
		
			<ellipse transform="matrix(0.7071 -0.7071 0.7071 0.7071 -15.3497 186.6739)" style="fill:#407BFF;" cx="217.661" cy="111.866" rx="18.516" ry="18.516"/>
		<circle style="fill:#407BFF;" cx="180.415" cy="148.966" r="11.36"/>
		<circle style="fill:#407BFF;" cx="380.638" cy="116.22" r="9.011"/>
		<g>
			<path style="fill:#FFFFFF;" d="M330.888,107.331c0-14.634-11.864-26.498-26.499-26.498c-14.634,0-26.498,11.864-26.498,26.498
				c0,10.747,6.41,19.98,15.606,24.137v4.689h21.785v-4.689C324.478,127.312,330.888,118.079,330.888,107.331z"/>
			<polygon style="opacity:0.2;" points="313.405,148.966 295.375,148.966 293.497,136.157 315.283,136.157 			"/>
			<polygon style="opacity:0.4;" points="308.836,151.1 299.944,151.1 299.018,148.966 309.762,148.966 			"/>
			<g>
				<path style="fill:#407BFF;" d="M301.565,113.365c-0.484-1.576-1.542-3.236-2.98-4.673c-3.125-3.123-6.964-4.175-8.744-2.396
					c-0.904,0.905-1.111,2.35-0.584,4.07c0.484,1.576,1.542,3.236,2.979,4.673c2.097,2.096,4.517,3.26,6.419,3.26
					c0.469,0,0.906-0.072,1.3-0.216l1.775,18.139c0.033,0.342,0.321,0.598,0.658,0.598c0.021,0,0.044-0.001,0.065-0.003
					c0.364-0.036,0.631-0.359,0.595-0.724l-1.851-18.916C301.909,116.267,302.045,114.933,301.565,113.365z M293.174,114.103
					c-1.288-1.287-2.228-2.752-2.65-4.125c-0.371-1.211-0.278-2.211,0.255-2.744c0.319-0.32,0.808-0.483,1.41-0.483
					c1.434,0,3.508,0.927,5.459,2.878c1.288,1.287,2.229,2.752,2.65,4.125c0.371,1.211,0.278,2.211-0.255,2.744
					C298.961,117.578,295.945,116.874,293.174,114.103z"/>
				<path style="fill:#407BFF;" d="M318.94,106.296c-0.905-0.903-2.35-1.112-4.07-0.583c-1.576,0.484-3.235,1.541-4.673,2.979
					c-1.438,1.438-2.496,3.097-2.979,4.673c-0.481,1.567-0.345,2.902,0.366,3.812l-1.851,18.916
					c-0.036,0.364,0.23,0.688,0.595,0.724c0.021,0.002,0.044,0.003,0.065,0.003c0.337,0,0.625-0.256,0.658-0.598l1.775-18.139
					c0.394,0.145,0.831,0.216,1.3,0.216c1.902,0,4.322-1.163,6.419-3.259c1.438-1.438,2.495-3.097,2.979-4.673
					C320.051,108.646,319.844,107.201,318.94,106.296z M318.257,109.978c-0.422,1.373-1.362,2.838-2.65,4.125
					c-2.771,2.771-5.789,3.476-6.869,2.396c-0.533-0.533-0.626-1.533-0.254-2.744c0.421-1.373,1.362-2.838,2.65-4.125l0,0
					c1.287-1.288,2.752-2.229,4.124-2.65c0.49-0.15,0.945-0.225,1.349-0.225c0.595,0,1.078,0.161,1.396,0.479
					C318.535,107.766,318.628,108.767,318.257,109.978z"/>
			</g>
		</g>
	</g>
</g>
</svg>
